<?xml version="1.0" encoding="iso-8859-1"?>
<!-- Generator: Adobe Illustrator 24.0.2, SVG Export Plug-In . SVG Version: 6.00 Build 0)  -->
<svg version="1.1" id="Capa_1" xmlns="http://www.w3.org/2000/svg" xmlns:xlink="http://www.w3.org/1999/xlink" x="0px" y="0px"
	 viewBox="0 0 612 792" style="enable-background:new 0 0 612 792;" xml:space="preserve">
<g style="display:none;">
	<g style="display:inline;">
		<path style="fill:#FEFEFE;" d="M0.094,396C0.094,265.531,0.113,135.062,0,4.593C-0.003,0.844,0.845-0.002,4.593,0
			C205.531,0.106,406.47,0.106,607.408,0c3.748-0.002,4.593,0.844,4.592,4.593c-0.103,260.938-0.103,521.877,0,782.815
			c0.001,3.748-0.844,4.595-4.592,4.593c-200.938-0.106-401.877-0.106-602.815,0c-3.748,0.002-4.596-0.844-4.593-4.593
			C0.113,656.938,0.094,526.469,0.094,396z M470.034,392.293c0-24.327,0.008-48.653-0.013-72.98
			c-0.002-2.328,0.062-4.699-0.327-6.978c-3.968-23.257-14.312-43.203-31.98-58.911c-17.394-15.464-38.022-23.956-61.301-24.18
			c-45.147-0.433-90.301-0.096-135.452-0.161c-6.675-0.01-13.199,0.563-19.781,1.866c-43.363,8.589-77.326,47.074-77.868,94.301
			c-0.453,39.484-0.19,78.976-0.159,118.465c0.008,10.63-0.029,21.243,1.741,31.824c7.631,45.617,48.413,80.421,94.524,80.423
			c44.485,0.002,88.969,0.004,133.454-0.001c21.469-0.002,41.083-5.898,58.135-19.106c25.142-19.475,39.21-44.677,39.048-77.083
			C469.944,437.281,470.035,414.787,470.034,392.293z"/>
		<path style="fill:#B2B2B2;" d="M470.034,392.293c0,22.494-0.091,44.988,0.022,67.481c0.162,32.406-13.906,57.608-39.048,77.083
			c-17.052,13.208-36.666,19.104-58.135,19.106c-44.485,0.004-88.97,0.003-133.454,0.001c-46.111-0.002-86.893-34.807-94.524-80.423
			c-1.77-10.582-1.733-21.195-1.741-31.824c-0.03-39.489-0.294-78.981,0.159-118.465c0.542-47.227,34.504-85.712,77.868-94.301
			c6.582-1.304,13.106-1.876,19.781-1.866c45.151,0.065,90.305-0.273,135.452,0.161c23.278,0.223,43.906,8.715,61.301,24.18
			c17.668,15.708,28.012,35.654,31.98,58.911c0.389,2.279,0.325,4.65,0.327,6.978C470.042,343.64,470.034,367.966,470.034,392.293z
			 M306.926,522.049c0,0.033,0,0.066,0,0.099c21.826,0,43.652,0.02,65.478-0.019c3.658-0.007,7.383,0.131,10.962-0.475
			c27.387-4.638,53.589-28.224,53.527-63.953c-0.053-31.158,0.23-62.317-0.018-93.473c-0.121-15.134,0.975-30.301-0.76-45.407
			c-3.685-32.077-30.252-55.858-62.397-55.864c-44.65-0.009-89.301,0.019-133.951-0.011c-21.719-0.015-38.153,10.214-51.062,26.744
			c-9.229,11.817-11.585,25.947-11.624,40.487c-0.11,40.156-0.043,80.312-0.033,120.468c0.001,5.817,0.176,11.601,0.809,17.421
			c3.111,28.625,30.806,53.896,59.596,53.972C260.61,522.098,283.768,522.049,306.926,522.049z"/>
		<path style="fill:#FEFEFE;" d="M306.926,522.049c-23.158,0-46.317,0.049-69.475-0.012c-28.789-0.077-56.484-25.348-59.596-53.972
			c-0.633-5.82-0.807-11.604-0.809-17.421c-0.01-40.156-0.077-80.312,0.033-120.468c0.04-14.54,2.395-28.67,11.624-40.487
			c12.91-16.53,29.343-26.759,51.062-26.744c44.65,0.03,89.301,0.002,133.951,0.011c32.146,0.006,58.713,23.788,62.397,55.864
			c1.735,15.106,0.639,30.273,0.76,45.407c0.249,31.156-0.035,62.315,0.018,93.473c0.061,35.729-26.141,59.315-53.527,63.953
			c-3.579,0.606-7.304,0.469-10.962,0.475c-21.826,0.039-43.652,0.019-65.478,0.019
			C306.926,522.114,306.926,522.081,306.926,522.049z M306.704,307.938c-44.414-1.023-84.048,35.346-84.607,83.466
			c-0.547,47.078,35.777,86.093,84.877,86.016c48.065-0.076,84.575-36.899,84.839-85.047
			C392.078,344.023,352.252,306.844,306.704,307.938z M391.683,329.098c11.77-0.029,20.428-8.747,20.364-20.506
			c-0.064-11.712-8.926-20.525-20.6-20.487c-11.347,0.037-20.493,9.317-20.461,20.76
			C371.018,320.517,379.827,329.127,391.683,329.098z"/>
		<path style="fill:#B2B2B2;" d="M306.704,307.938c45.548-1.094,85.374,36.085,85.109,84.434
			c-0.264,48.148-36.774,84.971-84.839,85.047c-49.101,0.077-85.425-38.938-84.877-86.016
			C222.656,343.284,262.29,306.914,306.704,307.938z M306.946,341.836c-25.503-1.301-51.185,21.112-51.011,50.372
			c0.169,28.422,21.514,51.538,51.302,51.374c31.019-0.171,50.589-24.979,50.746-50.917
			C358.161,363.285,333.009,340.497,306.946,341.836z"/>
		<path style="fill:#B2B2B2;" d="M391.683,329.098c-11.856,0.029-20.664-8.581-20.697-20.233
			c-0.032-11.443,9.114-20.723,20.461-20.76c11.674-0.038,20.536,8.775,20.6,20.487
			C412.111,320.351,403.453,329.069,391.683,329.098z"/>
		<path style="fill:#FEFEFE;" d="M306.946,341.836c26.063-1.339,51.215,21.449,51.037,50.828
			c-0.157,25.938-19.727,50.746-50.746,50.917c-29.788,0.164-51.134-22.951-51.302-51.374
			C255.761,362.948,281.443,340.535,306.946,341.836z"/>
	</g>
</g>
<path style="display:none;fill:none;stroke:#999999;stroke-width:30;stroke-miterlimit:10;" d="M370.505,539.832H242.674
	c-46.043,0-83.368-37.325-83.368-83.368V328.632c0-46.043,37.325-83.368,83.368-83.368h127.832
	c46.043,0,83.368,37.325,83.368,83.368v127.832C453.874,502.506,416.548,539.832,370.505,539.832z"/>
<circle style="display:none;fill:none;stroke:#999999;stroke-width:29;stroke-miterlimit:10;" cx="306.589" cy="392.547" r="67.832"/>
<circle style="display:none;fill:#999999;" cx="391.442" cy="310.095" r="20.937"/>
<g>
	<g>
		<path style="fill:#989898;" d="M307.141,230.123c39.497,0.001,78.994-0.052,118.491,0.022
			c21.714,0.041,39.439,13.808,43.759,33.905c0.659,3.064,0.815,6.28,0.845,9.43c0.261,27.154,1.044,54.322,0.493,81.461
			c-0.723,35.657,0.834,71.292,0.171,106.939c-0.328,17.653-0.323,35.313-0.668,52.966c-0.467,23.868-19.021,42.198-42.92,42.396
			c-17.331,0.144-34.664-0.001-51.996,0.056c-4.158,0.014-8.314,0.384-12.473,0.472c-4.937,0.105-6.793-1.526-6.796-6.439
			c-0.017-35.163,0.07-70.327,0.066-105.49c-0.001-4.29,2.003-5.908,6.158-5.866c10.83,0.11,21.663,0.114,32.493-0.005
			c6.221-0.068,8.323-1.992,9.142-8.208c1.392-10.567,2.721-21.143,3.91-31.735c0.927-8.251-1.237-11.078-9.7-11.495
			c-11.143-0.549-22.324-0.657-33.47,0.107c-7.225,0.495-8.67-0.644-8.637-7.787c0.042-8.998-0.034-17.998,0.151-26.992
			c0.28-13.6,6.734-20.261,20.267-20.84c6.653-0.284,13.331,0.027,19.987-0.227c7.767-0.296,9.098-1.818,9.786-9.442
			c0.902-9.991-0.525-19.957-0.191-29.943c0.11-3.286-1.843-5.659-5.082-5.742c-19.103-0.488-38.475-2.98-56.987,3.657
			c-23.748,8.513-35.456,26.581-37.797,51.077c-1.125,11.768-1.276,23.591-0.379,35.435c0.627,8.28-0.488,12.039-10.437,10.67
			c-6.358-0.875-12.956-0.53-19.449,0.211c-5.008,0.572-7.68,3.326-7.715,8.144c-0.085,11.828-0.037,23.662,0.3,35.484
			c0.154,5.388,2.489,7.468,7.914,7.612c7.66,0.204,15.333,0.243,22.992,0.033c4.756-0.13,6.579,1.829,6.542,6.504
			c-0.278,35.154-0.477,70.308-0.605,105.463c-0.014,3.826-1.454,5.359-5.315,5.346c-39.328-0.132-78.66,0.113-117.983-0.352
			c-20.961-0.248-38.682-20.719-38.85-43.896c-0.156-21.497-0.037-42.996-0.037-64.495c0-57.495-0.026-114.991,0.015-172.486
			c0.015-21.478,12.306-38.532,31.686-44.134c4.829-1.396,9.797-1.835,14.827-1.831
			C228.813,230.133,267.977,230.122,307.141,230.123z"/>
	</g>
</g>
</svg>
