<?xml version="1.0" encoding="iso-8859-1"?>
<!-- Generator: Adobe Illustrator 24.0.2, SVG Export Plug-In . SVG Version: 6.00 Build 0)  -->
<svg version="1.1" id="Capa_1" xmlns="http://www.w3.org/2000/svg" xmlns:xlink="http://www.w3.org/1999/xlink" x="0px" y="0px"
	 viewBox="0 0 612 792" style="enable-background:new 0 0 612 792;" xml:space="preserve">
<g style="display:none;">
	<g style="display:inline;">
		<path style="fill:#FEFEFE;" d="M0.094,396C0.094,265.531,0.113,135.062,0,4.593C-0.003,0.844,0.845-0.002,4.593,0
			C205.531,0.106,406.47,0.106,607.408,0c3.748-0.002,4.593,0.844,4.592,4.593c-0.103,260.938-0.103,521.877,0,782.815
			c0.001,3.748-0.844,4.595-4.592,4.593c-200.938-0.106-401.877-0.106-602.815,0c-3.748,0.002-4.596-0.844-4.593-4.593
			C0.113,656.938,0.094,526.469,0.094,396z M470.034,392.293c0-24.327,0.008-48.653-0.013-72.98
			c-0.002-2.328,0.062-4.699-0.327-6.978c-3.968-23.257-14.312-43.203-31.98-58.911c-17.394-15.464-38.022-23.956-61.301-24.18
			c-45.147-0.433-90.301-0.096-135.452-0.161c-6.675-0.01-13.199,0.563-19.781,1.866c-43.363,8.589-77.326,47.074-77.868,94.301
			c-0.453,39.484-0.19,78.976-0.159,118.465c0.008,10.63-0.029,21.243,1.741,31.824c7.631,45.617,48.413,80.421,94.524,80.423
			c44.485,0.002,88.969,0.004,133.454-0.001c21.469-0.002,41.083-5.898,58.135-19.106c25.142-19.475,39.21-44.677,39.048-77.083
			C469.944,437.281,470.035,414.787,470.034,392.293z"/>
		<path style="fill:#B2B2B2;" d="M470.034,392.293c0,22.494-0.091,44.988,0.022,67.481c0.162,32.406-13.906,57.608-39.048,77.083
			c-17.052,13.208-36.666,19.104-58.135,19.106c-44.485,0.004-88.97,0.003-133.454,0.001c-46.111-0.002-86.893-34.807-94.524-80.423
			c-1.77-10.582-1.733-21.195-1.741-31.824c-0.03-39.489-0.294-78.981,0.159-118.465c0.542-47.227,34.504-85.712,77.868-94.301
			c6.582-1.304,13.106-1.876,19.781-1.866c45.151,0.065,90.305-0.273,135.452,0.161c23.278,0.223,43.906,8.715,61.301,24.18
			c17.668,15.708,28.012,35.654,31.98,58.911c0.389,2.279,0.325,4.65,0.327,6.978C470.042,343.64,470.034,367.966,470.034,392.293z
			 M306.926,522.049c0,0.033,0,0.066,0,0.099c21.826,0,43.652,0.02,65.478-0.019c3.658-0.007,7.383,0.131,10.962-0.475
			c27.387-4.638,53.589-28.224,53.527-63.953c-0.053-31.158,0.23-62.317-0.018-93.473c-0.121-15.134,0.975-30.301-0.76-45.407
			c-3.685-32.077-30.252-55.858-62.397-55.864c-44.65-0.009-89.301,0.019-133.951-0.011c-21.719-0.015-38.153,10.214-51.062,26.744
			c-9.229,11.817-11.585,25.947-11.624,40.487c-0.11,40.156-0.043,80.312-0.033,120.468c0.001,5.817,0.176,11.601,0.809,17.421
			c3.111,28.625,30.806,53.896,59.596,53.972C260.61,522.098,283.768,522.049,306.926,522.049z"/>
		<path style="fill:#FEFEFE;" d="M306.926,522.049c-23.158,0-46.317,0.049-69.475-0.012c-28.789-0.077-56.484-25.348-59.596-53.972
			c-0.633-5.82-0.807-11.604-0.809-17.421c-0.01-40.156-0.077-80.312,0.033-120.468c0.04-14.54,2.395-28.67,11.624-40.487
			c12.91-16.53,29.343-26.759,51.062-26.744c44.65,0.03,89.301,0.002,133.951,0.011c32.146,0.006,58.713,23.788,62.397,55.864
			c1.735,15.106,0.639,30.273,0.76,45.407c0.249,31.156-0.035,62.315,0.018,93.473c0.061,35.729-26.141,59.315-53.527,63.953
			c-3.579,0.606-7.304,0.469-10.962,0.475c-21.826,0.039-43.652,0.019-65.478,0.019
			C306.926,522.114,306.926,522.081,306.926,522.049z M306.704,307.938c-44.414-1.023-84.048,35.346-84.607,83.466
			c-0.547,47.078,35.777,86.093,84.877,86.016c48.065-0.076,84.575-36.899,84.839-85.047
			C392.078,344.023,352.252,306.844,306.704,307.938z M391.683,329.098c11.77-0.029,20.428-8.747,20.364-20.506
			c-0.064-11.712-8.926-20.525-20.6-20.487c-11.347,0.037-20.493,9.317-20.461,20.76
			C371.018,320.517,379.827,329.127,391.683,329.098z"/>
		<path style="fill:#B2B2B2;" d="M306.704,307.938c45.548-1.094,85.374,36.085,85.109,84.434
			c-0.264,48.148-36.774,84.971-84.839,85.047c-49.101,0.077-85.425-38.938-84.877-86.016
			C222.656,343.284,262.29,306.914,306.704,307.938z M306.946,341.836c-25.503-1.301-51.185,21.112-51.011,50.372
			c0.169,28.422,21.514,51.538,51.302,51.374c31.019-0.171,50.589-24.979,50.746-50.917
			C358.161,363.285,333.009,340.497,306.946,341.836z"/>
		<path style="fill:#B2B2B2;" d="M391.683,329.098c-11.856,0.029-20.664-8.581-20.697-20.233
			c-0.032-11.443,9.114-20.723,20.461-20.76c11.674-0.038,20.536,8.775,20.6,20.487
			C412.111,320.351,403.453,329.069,391.683,329.098z"/>
		<path style="fill:#FEFEFE;" d="M306.946,341.836c26.063-1.339,51.215,21.449,51.037,50.828
			c-0.157,25.938-19.727,50.746-50.746,50.917c-29.788,0.164-51.134-22.951-51.302-51.374
			C255.761,362.948,281.443,340.535,306.946,341.836z"/>
	</g>
</g>
<path style="fill:none;stroke:#999999;stroke-width:30;stroke-miterlimit:10;" d="M370.505,539.832H242.674
	c-46.043,0-83.368-37.325-83.368-83.368V328.632c0-46.043,37.325-83.368,83.368-83.368h127.832
	c46.043,0,83.368,37.325,83.368,83.368v127.832C453.874,502.506,416.548,539.832,370.505,539.832z"/>
<circle style="fill:none;stroke:#999999;stroke-width:29;stroke-miterlimit:10;" cx="306.589" cy="392.547" r="67.832"/>
<circle style="fill:#999999;" cx="391.442" cy="310.095" r="20.937"/>
<g style="display:none;">
	<g style="display:inline;">
		<path style="fill:#FEFEFE;" d="M611.906,396.5c0,130.302-0.019,260.605,0.094,390.908c0.003,3.749-0.845,4.595-4.593,4.593
			c-200.938-0.106-401.877-0.106-602.815,0c-3.748,0.002-4.593-0.844-4.592-4.593C0.103,526.469,0.103,265.531,0,4.593
			C-0.001,0.844,0.844-0.002,4.592,0C205.53,0.106,406.469,0.106,607.407,0c3.748-0.002,4.596,0.844,4.593,4.593
			C611.887,135.228,611.906,265.864,611.906,396.5z"/>
		<path style="fill:#989898;" d="M306.14,229.163c39.485,0.001,78.97-0.052,118.454,0.022c21.708,0.041,39.427,13.804,43.745,33.897
			c0.658,3.064,0.815,6.279,0.845,9.427c0.261,27.148,1.043,54.309,0.493,81.442c-0.723,35.649,0.833,71.276,0.171,106.914
			c-0.328,17.649-0.323,35.304-0.668,52.953c-0.466,23.862-19.016,42.188-42.906,42.386c-17.325,0.144-34.653-0.001-51.98,0.056
			c-4.157,0.014-8.311,0.384-12.469,0.472c-4.935,0.105-6.791-1.526-6.794-6.438c-0.017-35.155,0.07-70.31,0.066-105.465
			c-0.001-4.289,2.002-5.906,6.156-5.864c10.827,0.11,21.657,0.114,32.483-0.005c6.219-0.068,8.32-1.992,9.139-8.206
			c1.392-10.564,2.72-21.138,3.909-31.727c0.926-8.249-1.236-11.075-9.697-11.492c-11.139-0.549-22.317-0.657-33.46,0.107
			c-7.223,0.495-8.667-0.644-8.635-7.785c0.042-8.996-0.034-17.993,0.151-26.986c0.28-13.597,6.732-20.256,20.261-20.835
			c6.651-0.284,13.327,0.027,19.981-0.227c7.764-0.296,9.095-1.817,9.783-9.44c0.902-9.989-0.525-19.952-0.191-29.936
			c0.11-3.285-1.843-5.658-5.08-5.74c-19.098-0.488-38.463-2.979-56.97,3.656c-23.74,8.511-35.445,26.574-37.785,51.065
			c-1.124,11.765-1.276,23.586-0.379,35.426c0.627,8.278-0.488,12.036-10.434,10.667c-6.356-0.875-12.952-0.53-19.443,0.211
			c-5.007,0.572-7.678,3.325-7.712,8.142c-0.085,11.825-0.037,23.657,0.3,35.476c0.154,5.386,2.488,7.466,7.912,7.61
			c7.658,0.204,15.328,0.243,22.985,0.033c4.755-0.13,6.577,1.829,6.54,6.503c-0.278,35.145-0.477,70.292-0.604,105.438
			c-0.014,3.825-1.453,5.358-5.313,5.345c-39.316-0.132-78.635,0.113-117.947-0.351c-20.954-0.248-38.67-20.714-38.838-43.886
			c-0.156-21.492-0.037-42.986-0.037-64.479c0-57.482-0.026-114.964,0.015-172.446c0.015-21.473,12.303-38.523,31.676-44.124
			c4.827-1.396,9.794-1.834,14.822-1.831C227.837,229.173,266.988,229.162,306.14,229.163z"/>
	</g>
</g>
</svg>
